<svg width="13" height="13" viewBox="0 0 13 13" fill="none" xmlns="http://www.w3.org/2000/svg">
<path d="M6.49999 6.35785C7.94537 6.35785 9.11719 4.93461 9.11719 3.17895C9.11719 1.42324 8.73246 0 6.49999 0C4.26752 0 3.88272 1.42324 3.88272 3.17895C3.88272 4.93461 5.05454 6.35785 6.49999 6.35785Z" fill="#93B474"/>
<path d="M1.55662 11.2108C1.55618 11.1053 1.55573 11.1811 1.55662 11.2108V11.2108Z" fill="#93B474"/>
<path d="M11.4432 11.2954C11.4446 11.2661 11.4436 11.092 11.4432 11.2954V11.2954Z" fill="#93B474"/>
<path d="M11.4376 11.0834C11.3891 8.02493 10.9897 7.15345 7.93309 6.60181C7.93309 6.60181 7.50283 7.15007 6.49998 7.15007C5.49712 7.15007 5.06678 6.60181 5.06678 6.60181C2.04354 7.14744 1.61981 8.00599 1.5641 10.984C1.55953 11.2272 1.55741 11.2399 1.55659 11.2117C1.55678 11.2646 1.557 11.3624 1.557 11.533C1.557 11.533 2.28471 13 6.49998 13C10.7152 13 11.4429 11.533 11.4429 11.533C11.4429 11.4234 11.443 11.3472 11.4431 11.2954C11.4423 11.3128 11.4407 11.279 11.4376 11.0834Z" fill="#93B474"/>
</svg>
