<svg width="16" height="12" viewBox="0 0 16 12" fill="none" xmlns="http://www.w3.org/2000/svg">
<path d="M15.3764 10.6633C14.7988 11.3498 13.7325 11.6299 11.6961 11.6299H4.30379C2.22075 11.6299 1.13636 11.3318 0.560981 10.6008C0 9.88815 0 8.83809 0 7.38477V4.61476C0 1.79922 0.6656 0.369701 4.30379 0.369701H11.6961C13.4621 0.369701 14.4407 0.616824 15.0738 1.22271C15.723 1.84402 16 2.85848 16 4.61476V7.38477C16 8.91742 15.9566 9.97368 15.3764 10.6633ZM10.2721 5.61734L6.91525 3.86297C6.84021 3.82374 6.75814 3.80428 6.67618 3.80428C6.58338 3.80428 6.49079 3.82926 6.40877 3.87892C6.25435 3.97249 6.16005 4.13987 6.16005 4.32041V7.81791C6.16005 7.99814 6.25409 8.16537 6.40821 8.25899C6.56237 8.35262 6.75412 8.35902 6.91406 8.27592L10.2709 6.53285C10.4417 6.44418 10.5489 6.26787 10.5492 6.07551C10.5494 5.88299 10.4426 5.70642 10.2721 5.61734Z" fill="#EFEFEF"/>
</svg>
