<svg width="24" height="16" viewBox="0 0 24 16" fill="none" xmlns="http://www.w3.org/2000/svg">
<path d="M23.8475 8.4668C23.6331 8.7601 18.5245 15.6483 11.9999 15.6483C5.47529 15.6483 0.36647 8.7601 0.152297 8.46708C-0.0507657 8.18883 -0.0507657 7.81144 0.152297 7.53319C0.36647 7.23989 5.47529 0.351648 11.9999 0.351648C18.5245 0.351648 23.6331 7.23994 23.8475 7.53296C24.0508 7.81116 24.0508 8.18883 23.8475 8.4668ZM11.9999 1.93406C7.19383 1.93406 3.03127 6.50592 1.79907 8.00054C3.02968 9.49646 7.18352 14.0659 11.9999 14.0659C16.8057 14.0659 20.968 9.49487 22.2007 7.99946C20.9701 6.50358 16.8163 1.93406 11.9999 1.93406Z" fill="#8A8A8A"/>
<path d="M11.9992 12.7473C9.38163 12.7473 7.25195 10.6176 7.25195 7.99998C7.25195 5.38238 9.38163 3.2527 11.9992 3.2527C14.6168 3.2527 16.7465 5.38238 16.7465 7.99998C16.7465 10.6176 14.6168 12.7473 11.9992 12.7473ZM11.9992 4.83516C10.2541 4.83516 8.83441 6.25486 8.83441 7.99998C8.83441 9.74509 10.2541 11.1648 11.9992 11.1648C13.7443 11.1648 15.164 9.74509 15.164 7.99998C15.164 6.25486 13.7444 4.83516 11.9992 4.83516Z" fill="#8A8A8A"/>
</svg>
