<svg width="125" height="39" viewBox="0 0 125 39" fill="none" xmlns="http://www.w3.org/2000/svg">
<path d="M4.13445 0.559814C4.13445 0.559814 0 1.40249 0 5.65591C0 9.90895 0 31.6729 0 31.6729C0 31.6729 0.459071 26.4316 4.13445 26.4316H82L74.0596 13.0347L82 0.559814H4.13445V0.559814Z" fill="#DD133B"/>
<path d="M22.47 10.5714H24.24L26.68 17.6714H25L24.45 16.0814H22.24L21.7 17.6714H20.02L22.47 10.5714ZM24.18 14.9514L23.35 12.2214L22.5 14.9514H24.18ZM28.0092 17.6714V10.5714H29.6392V13.3214H30.1992L32.1792 10.5714H33.9992L31.4592 14.0014L34.2192 17.6714H32.2292L30.1492 14.8114H29.6392V17.6714H28.0092ZM40.9091 19.0314V17.6714H35.6691V10.5714H37.3091V16.2314H39.7391V10.5714H41.3791V16.2314H42.3491V19.0314H40.9091ZM43.9751 17.6714V10.5714H45.6151V15.3414L48.6751 10.5714H50.2051V17.6714H48.5651V12.9314L45.5451 17.6714H43.9751ZM52.0209 17.6714L53.7009 14.8914C53.2809 14.7314 52.9542 14.4681 52.7209 14.1014C52.4875 13.7347 52.3709 13.3081 52.3709 12.8214C52.3709 12.3814 52.4709 11.9947 52.6709 11.6614C52.8775 11.3214 53.1575 11.0547 53.5109 10.8614C53.8709 10.6681 54.2842 10.5714 54.7509 10.5714H57.7509V17.6714H56.1109V15.0814H55.6109C55.5709 15.0814 55.5275 15.0814 55.4809 15.0814C55.4409 15.0814 55.4009 15.0814 55.3609 15.0814L53.8709 17.6714H52.0209ZM54.9609 13.6914H56.1109V11.9614H54.9809C54.8142 11.9614 54.6575 11.9914 54.5109 12.0514C54.3709 12.1114 54.2575 12.2047 54.1709 12.3314C54.0842 12.4514 54.0409 12.6147 54.0409 12.8214C54.0409 13.0214 54.0809 13.1881 54.1609 13.3214C54.2409 13.4481 54.3509 13.5414 54.4909 13.6014C54.6375 13.6614 54.7942 13.6914 54.9609 13.6914Z" fill="white"/>
</svg>
